<svg width="40" height="41" viewBox="0 0 40 41" fill="none" xmlns="http://www.w3.org/2000/svg">
<g opacity="0.7">
<circle cx="20" cy="20.9219" r="20" fill="white"/>
<path d="M19.9991 17.7977C18.2788 17.7977 16.8749 19.2016 16.8749 20.9219C16.8749 22.6422 18.2788 24.0461 19.9991 24.0461C21.7194 24.0461 23.1234 22.6422 23.1234 20.9219C23.1234 19.2016 21.7194 17.7977 19.9991 17.7977ZM29.3694 20.9219C29.3694 19.6281 29.3812 18.3461 29.3085 17.0547C29.2359 15.5547 28.8937 14.2235 27.7968 13.1266C26.6976 12.0274 25.3687 11.6875 23.8687 11.6149C22.5749 11.5422 21.2929 11.5539 20.0015 11.5539C18.7077 11.5539 17.4257 11.5422 16.1343 11.6149C14.6343 11.6875 13.303 12.0297 12.2062 13.1266C11.1069 14.2258 10.7671 15.5547 10.6944 17.0547C10.6218 18.3485 10.6335 19.6305 10.6335 20.9219C10.6335 22.2133 10.6218 23.4977 10.6944 24.7891C10.7671 26.2891 11.1093 27.6203 12.2062 28.7172C13.3054 29.8164 14.6343 30.1563 16.1343 30.2289C17.428 30.3016 18.7101 30.2899 20.0015 30.2899C21.2952 30.2899 22.5773 30.3016 23.8687 30.2289C25.3687 30.1563 26.6999 29.8141 27.7968 28.7172C28.896 27.618 29.2359 26.2891 29.3085 24.7891C29.3835 23.4977 29.3694 22.2156 29.3694 20.9219ZM19.9991 25.7289C17.339 25.7289 15.1921 23.582 15.1921 20.9219C15.1921 18.2617 17.339 16.1149 19.9991 16.1149C22.6593 16.1149 24.8062 18.2617 24.8062 20.9219C24.8062 23.582 22.6593 25.7289 19.9991 25.7289ZM25.003 17.0406C24.3819 17.0406 23.8804 16.5391 23.8804 15.918C23.8804 15.2969 24.3819 14.7953 25.003 14.7953C25.6241 14.7953 26.1257 15.2969 26.1257 15.918C26.1259 16.0655 26.097 16.2115 26.0406 16.3478C25.9843 16.4841 25.9016 16.6079 25.7973 16.7122C25.693 16.8165 25.5692 16.8992 25.4329 16.9556C25.2966 17.0119 25.1505 17.0408 25.003 17.0406Z" fill="black"/>
</g>
</svg>
