<svg width="40" height="41" viewBox="0 0 40 41" fill="none" xmlns="http://www.w3.org/2000/svg">
<g opacity="0.7">
<circle cx="20" cy="20.9219" r="20" fill="white"/>
<path d="M31.6435 13.859C30.8085 14.229 29.9115 14.479 28.9685 14.592C29.9415 14.0097 30.6694 13.0934 31.0165 12.014C30.1023 12.5569 29.1018 12.9391 28.0585 13.144C27.3569 12.3948 26.4276 11.8983 25.4148 11.7314C24.4021 11.5646 23.3626 11.7367 22.4577 12.2212C21.5529 12.7057 20.8333 13.4753 20.4107 14.4107C19.988 15.346 19.886 16.3947 20.1205 17.394C18.2682 17.3009 16.4561 16.8195 14.8019 15.9809C13.1477 15.1422 11.6883 13.9651 10.5185 12.526C10.1185 13.216 9.8885 14.016 9.8885 14.868C9.88805 15.6349 10.0769 16.3902 10.4384 17.0667C10.7998 17.7432 11.3227 18.32 11.9605 18.746C11.2208 18.7224 10.4974 18.5225 9.8505 18.163V18.223C9.85043 19.2987 10.2225 20.3413 10.9037 21.174C11.5848 22.0066 12.5331 22.5779 13.5875 22.791C12.9013 22.9767 12.1818 23.004 11.4835 22.871C11.781 23.7966 12.3605 24.606 13.1409 25.1859C13.9212 25.7658 14.8634 26.0871 15.8355 26.105C14.1853 27.4004 12.1474 28.103 10.0495 28.1C9.67788 28.1001 9.30658 28.0784 8.9375 28.035C11.067 29.4041 13.5458 30.1308 16.0775 30.128C24.6475 30.128 29.3325 23.03 29.3325 16.874C29.3325 16.674 29.3275 16.472 29.3185 16.272C30.2298 15.6129 31.0164 14.7968 31.6415 13.862L31.6435 13.859Z" fill="black"/>
</g>
</svg>
